# ProBuilder 4.4.0
# https://unity3d.com/unity/features/worldbuilding/probuilder
# 15.03.2021 20:53:08

mtllib ./Arch.mtl
o Arch

g Arch (1)
v -1.375 -2.165064 -0.5
v -1.373287 -2.034179 -0.5
v -1.375 -2.165064 0.5
v -1.373287 -2.034179 0.5
v -0.8734581 -2.047267 -0.5
v -0.8750002 -2.165064 -0.5
v -0.8734581 -2.047267 0.5
v -0.8750002 -2.165064 0.5
v -1.368148 -1.903384 -0.5
v -1.368148 -1.903384 0.5
v -0.8688328 -1.929552 -0.5
v -0.8688328 -1.929552 0.5
v -1.359587 -1.772768 -0.5
v -1.359587 -1.772768 0.5
v -0.861128 -1.811998 -0.5
v -0.861128 -1.811998 0.5
v -1.34761 -1.642421 -0.5
v -1.34761 -1.642421 0.5
v -0.8503487 -1.694685 -0.5
v -0.8503487 -1.694685 0.5
v -1.332225 -1.512432 -0.5
v -1.332225 -1.512432 0.5
v -0.8365023 -1.577696 -0.5
v -0.8365023 -1.577696 0.5
v -1.313442 -1.382891 -0.5
v -1.313442 -1.382891 0.5
v -0.8195979 -1.461108 -0.5
v -0.8195979 -1.461108 0.5
v -1.291275 -1.253886 -0.5
v -1.291275 -1.253886 0.5
v -0.7996475 -1.345004 -0.5
v -0.7996475 -1.345004 0.5
v -1.265738 -1.125505 -0.5
v -1.265738 -1.125505 0.5
v -0.7766644 -1.229461 -0.5
v -0.7766644 -1.229461 0.5
v -1.23685 -0.9978366 -0.5
v -1.23685 -0.9978366 0.5
v -0.7506649 -1.114559 -0.5
v -0.7506649 -1.114559 0.5
v -1.204629 -0.8709682 -0.5
v -1.204629 -0.8709682 0.5
v -0.7216665 -1.000378 -0.5
v -0.7216665 -1.000378 0.5
v -1.169099 -0.7449866 -0.5
v -1.169099 -0.7449866 0.5
v -0.6896889 -0.8869943 -0.5
v -0.6896889 -0.8869943 0.5
v -1.130283 -0.6199785 -0.5
v -1.130283 -0.6199785 0.5
v -0.6547548 -0.774487 -0.5
v -0.6547548 -0.774487 0.5
v -1.088207 -0.4960291 -0.5
v -1.088207 -0.4960291 0.5
v -0.6168868 -0.6629325 -0.5
v -0.6168868 -0.6629325 0.5
v -1.042902 -0.3732238 -0.5
v -1.042902 -0.3732238 0.5
v -0.576112 -0.5524077 -0.5
v -0.576112 -0.5524077 0.5
v -0.9943978 -0.2516461 -0.5
v -0.9943978 -0.2516461 0.5
v -0.532458 -0.4429879 -0.5
v -0.532458 -0.4429879 0.5
v -0.9427273 -0.1313802 -0.5
v -0.9427273 -0.1313802 0.5
v -0.4859545 -0.3347486 -0.5
v -0.4859545 -0.3347486 0.5
v -0.8879263 -0.012508 -0.5
v -0.8879263 -0.012508 0.5
v -0.4366338 -0.2277636 -0.5
v -0.4366338 -0.2277636 0.5
v -0.830033 0.1048891 -0.5
v -0.830033 0.1048891 0.5
v -0.3845298 -0.1221062 -0.5
v -0.3845298 -0.1221062 0.5
v -0.7690861 0.2207302 -0.5
v -0.7690861 0.2207302 0.5
v -0.3296773 -0.01784906 -0.5
v -0.3296773 -0.01784906 0.5
v -0.7051269 0.3349365 -0.5
v -0.7051269 0.3349365 0.5
v -0.2721145 0.08493652 -0.5
v -0.2721145 0.08493652 0.5
v -0.6382009 0.4474293 -0.5
v -0.6382009 0.4474293 0.5
v -0.2118809 0.18618 -0.5
v -0.2118809 0.18618 0.5
v -0.5683529 0.5581319 -0.5
v -0.5683529 0.5581319 0.5
v -0.1490178 0.2858123 -0.5
v -0.1490178 0.2858123 0.5
v -0.4956309 0.6669678 -0.5
v -0.4956309 0.6669678 0.5
v -0.08356805 0.3837647 -0.5
v -0.08356805 0.3837647 0.5
v -0.4200852 0.7738628 -0.5
v -0.4200852 0.7738628 0.5
v -0.0155768 0.4799701 -0.5
v -0.0155768 0.4799701 0.5
v -0.3417668 0.8787436 -0.5
v -0.3417668 0.8787436 0.5
v 0.05490998 0.5743629 -0.5
v 0.05490998 0.5743629 0.5
v -0.2607298 0.9815385 -0.5
v -0.2607298 0.9815385 0.5
v 0.1278432 0.6668782 -0.5
v 0.1278432 0.6668782 0.5
v -0.1770301 1.082177 -0.5
v -0.1770301 1.082177 0.5
v 0.203173 0.7574527 -0.5
v 0.203173 0.7574527 0.5
v -0.09072419 1.18059 -0.5
v -0.09072419 1.18059 0.5
v 0.2808481 0.8460245 -0.5
v 0.2808481 0.8460245 0.5
v -0.00187226 1.276709 -0.5
v -0.00187226 1.276709 0.5
v 0.3608151 0.932532 -0.5
v 0.3608151 0.932532 0.5
v 0.0894659 1.37047 -0.5
v 0.0894659 1.37047 0.5
v 0.4430194 1.016917 -0.5
v 0.4430194 1.016917 0.5
v 0.1832271 1.461808 -0.5
v 0.1832271 1.461808 0.5
v 0.5274044 1.099121 -0.5
v 0.5274044 1.099121 0.5
v 0.279347 1.550661 -0.5
v 0.279347 1.550661 0.5
v 0.6139124 1.179088 -0.5
v 0.6139124 1.179088 0.5
v 0.3777597 1.636966 -0.5
v 0.3777597 1.636966 0.5
v 0.7024837 1.256763 -0.5
v 0.7024837 1.256763 0.5
v 0.4783976 1.720666 -0.5
v 0.4783976 1.720666 0.5
v 0.7930577 1.332093 -0.5
v 0.7930577 1.332093 0.5
v 0.5811928 1.801703 -0.5
v 0.5811928 1.801703 0.5
v 0.8855734 1.405026 -0.5
v 0.8855734 1.405026 0.5
v 0.6860734 1.880021 -0.5
v 0.6860734 1.880021 0.5
v 0.979966 1.475513 -0.5
v 0.979966 1.475513 0.5
v 0.7929686 1.955567 -0.5
v 0.7929686 1.955567 0.5
v 1.076172 1.543504 -0.5
v 1.076172 1.543504 0.5
v 0.9018045 2.028289 -0.5
v 0.9018045 2.028289 0.5
v 1.174124 1.608954 -0.5
v 1.174124 1.608954 0.5
v 1.012507 2.098137 -0.5
v 1.012507 2.098137 0.5
v 1.273756 1.671817 -0.5
v 1.273756 1.671817 0.5
v 1.125 2.165064 -0.5
v 1.125 2.165064 0.5
v 1.375 1.732051 -0.5
v 1.375 1.732051 0.5

vt -0.5 -2.182875
vt -0.5 -2.05198
vt 0.5 -2.182875
vt 0.5 -2.05198
vt 0.5 -2.058526
vt 0.5 -2.176332
vt -0.5 -2.058526
vt -0.5 -2.176332
vt -1.375 0.5
vt -0.8750002 0.5
vt -1.375 -0.5
vt -0.8750002 -0.5
vt -0.5 -2.086529
vt -0.5 -1.955633
vt 0.5 -2.086529
vt 0.5 -1.955633
vt 0.5 -1.962176
vt 0.5 -2.079983
vt -0.5 -1.962176
vt -0.5 -2.079983
vt -0.5 -1.988786
vt -0.5 -1.85789
vt 0.5 -1.988786
vt 0.5 -1.85789
vt 0.5 -1.864437
vt 0.5 -1.982244
vt -0.5 -1.864437
vt -0.5 -1.982244
vt -0.5 -1.889736
vt -0.5 -1.75884
vt 0.5 -1.889736
vt 0.5 -1.75884
vt 0.5 -1.765384
vt 0.5 -1.88319
vt -0.5 -1.765384
vt -0.5 -1.88319
vt -0.5 -1.789431
vt -0.5 -1.658535
vt 0.5 -1.789431
vt 0.5 -1.658535
vt 0.5 -1.665079
vt 0.5 -1.782885
vt -0.5 -1.665079
vt -0.5 -1.782885
vt -0.5 -1.687945
vt -0.5 -1.557049
vt 0.5 -1.687945
vt 0.5 -1.557049
vt 0.5 -1.563594
vt 0.5 -1.681401
vt -0.5 -1.563594
vt -0.5 -1.681401
vt -0.5 -1.585348
vt -0.5 -1.454452
vt 0.5 -1.585348
vt 0.5 -1.454452
vt 0.5 -1.460996
vt 0.5 -1.578803
vt -0.5 -1.460996
vt -0.5 -1.578803
vt -0.5 -1.481708
vt -0.5 -1.350812
vt 0.5 -1.481708
vt 0.5 -1.350812
vt 0.5 -1.357358
vt 0.5 -1.475164
vt -0.5 -1.357358
vt -0.5 -1.475164
vt -0.5 -1.377097
vt -0.5 -1.246201
vt 0.5 -1.377097
vt 0.5 -1.246201
vt 0.5 -1.252747
vt 0.5 -1.370553
vt -0.5 -1.252747
vt -0.5 -1.370553
vt -0.5 -1.271591
vt -0.5 -1.140695
vt 0.5 -1.271591
vt 0.5 -1.140695
vt 0.5 -1.147237
vt 0.5 -1.265044
vt -0.5 -1.147237
vt -0.5 -1.265044
vt -0.5 -1.16525
vt -0.5 -1.034354
vt 0.5 -1.16525
vt 0.5 -1.034354
vt 0.5 -1.040902
vt 0.5 -1.158709
vt -0.5 -1.040902
vt -0.5 -1.158709
vt -0.5 -1.058163
vt -0.5 -0.9272673
vt 0.5 -1.058163
vt 0.5 -0.9272673
vt 0.5 -0.9338112
vt 0.5 -1.051617
vt -0.5 -0.9338112
vt -0.5 -1.051617
vt -0.5 -0.9503971
vt -0.5 -0.8195009
vt 0.5 -0.9503971
vt 0.5 -0.8195009
vt 0.5 -0.8260436
vt 0.5 -0.9438502
vt -0.5 -0.8260436
vt -0.5 -0.9438502
vt -0.5 -0.8420172
vt -0.5 -0.7111213
vt 0.5 -0.8420172
vt 0.5 -0.7111213
vt 0.5 -0.7176665
vt 0.5 -0.8354728
vt -0.5 -0.7176665
vt -0.5 -0.8354728
vt -0.5 -0.7331082
vt -0.5 -0.602212
vt 0.5 -0.7331082
vt 0.5 -0.602212
vt 0.5 -0.6087574
vt 0.5 -0.7265638
vt -0.5 -0.6087574
vt -0.5 -0.7265638
vt -0.5 -0.623744
vt -0.5 -0.492848
vt 0.5 -0.623744
vt 0.5 -0.492848
vt 0.5 -0.4993922
vt 0.5 -0.6171985
vt -0.5 -0.4993922
vt -0.5 -0.6171985
vt -0.5 -0.5139949
vt -0.5 -0.383099
vt 0.5 -0.5139949
vt 0.5 -0.383099
vt 0.5 -0.3896429
vt 0.5 -0.5074491
vt -0.5 -0.3896429
vt -0.5 -0.5074491
vt -0.5 -0.4039348
vt -0.5 -0.2730391
vt 0.5 -0.4039348
vt 0.5 -0.2730391
vt 0.5 -0.2795858
vt 0.5 -0.3973921
vt -0.5 -0.2795858
vt -0.5 -0.3973921
vt -0.5 -0.2936497
vt -0.5 -0.1627539
vt 0.5 -0.2936497
vt 0.5 -0.1627539
vt 0.5 -0.1692991
vt 0.5 -0.2871055
vt -0.5 -0.1692991
vt -0.5 -0.2871055
vt -0.5 -0.1832082
vt -0.5 -0.05231187
vt 0.5 -0.1832082
vt 0.5 -0.05231187
vt 0.5 -0.05885442
vt 0.5 -0.1766609
vt -0.5 -0.05885442
vt -0.5 -0.1766609
vt -0.5 -0.07267899
vt -0.5 0.05821684
vt 0.5 -0.07267899
vt 0.5 0.05821684
vt 0.5 0.05167099
vt 0.5 -0.06613533
vt -0.5 0.05167099
vt -0.5 -0.06613533
vt -0.5 0.03785034
vt -0.5 0.1687465
vt 0.5 0.03785034
vt 0.5 0.1687465
vt 0.5 0.1622017
vt 0.5 0.04439524
vt -0.5 0.1622017
vt -0.5 0.04439524
vt -0.5 0.1483094
vt -0.5 0.2792053
vt 0.5 0.1483094
vt 0.5 0.2792053
vt 0.5 0.2726606
vt 0.5 0.1548543
vt -0.5 0.2726606
vt -0.5 0.1548543
vt -0.5 0.2586232
vt -0.5 0.3895189
vt 0.5 0.2586232
vt 0.5 0.3895189
vt 0.5 0.3829736
vt 0.5 0.2651674
vt -0.5 0.3829736
vt -0.5 0.2651674
vt -0.5 0.3687125
vt -0.5 0.4996085
vt 0.5 0.3687125
vt 0.5 0.4996085
vt 0.5 0.4930638
vt 0.5 0.3752573
vt -0.5 0.4930638
vt -0.5 0.3752573
vt -0.5 0.4785061
vt -0.5 0.6094022
vt 0.5 0.4785061
vt 0.5 0.6094022
vt 0.5 0.6028575
vt 0.5 0.4850512
vt -0.5 0.6028575
vt -0.5 0.4850512
vt -0.5 0.5879276
vt -0.5 0.7188233
vt 0.5 0.5879276
vt 0.5 0.7188233
vt 0.5 0.7122785
vt 0.5 0.5944723
vt -0.5 0.7122785
vt -0.5 0.5944723
vt -0.5 0.6968995
vt -0.5 0.8277957
vt 0.5 0.6968995
vt 0.5 0.8277957
vt 0.5 0.8212515
vt 0.5 0.7034449
vt -0.5 0.8212515
vt -0.5 0.7034449
vt -0.5 0.8053507
vt -0.5 0.9362462
vt 0.5 0.8053507
vt 0.5 0.9362462
vt 0.5 0.9297002
vt 0.5 0.8118941
vt -0.5 0.9297002
vt -0.5 0.8118941
vt -0.5 0.9132026
vt -0.5 1.044099
vt 0.5 0.9132026
vt 0.5 1.044099
vt 0.5 1.037554
vt 0.5 0.9197472
vt -0.5 1.037554
vt -0.5 0.9197472
vt -1.020384 -0.5
vt -1.151279 -0.5
vt -1.020384 0.5
vt -1.151279 0.5
vt 1.144737 -0.5
vt 1.02693 -0.5
vt 1.144737 0.5
vt 1.02693 0.5
vt -1.126827 -0.5
vt -1.257724 -0.5
vt -1.126827 0.5
vt -1.257724 0.5
vt 1.251177 -0.5
vt 1.13337 -0.5
vt 1.251177 0.5
vt 1.13337 0.5
vt -1.232444 -0.5
vt -1.36334 -0.5
vt -1.232444 0.5
vt -1.36334 0.5
vt 1.356797 -0.5
vt 1.238991 -0.5
vt 1.356797 0.5
vt 1.238991 0.5
vt -1.337178 -0.5
vt -1.468073 -0.5
vt -1.337178 0.5
vt -1.468073 0.5
vt 1.461529 -0.5
vt 1.343723 -0.5
vt 1.461529 0.5
vt 1.343723 0.5
vt -1.440947 -0.5
vt -1.571843 -0.5
vt -1.440947 0.5
vt -1.571843 0.5
vt 1.565298 -0.5
vt 1.447491 -0.5
vt 1.565298 0.5
vt 1.447491 0.5
vt -1.543688 -0.5
vt -1.674584 -0.5
vt -1.543688 0.5
vt -1.674584 0.5
vt 1.668039 -0.5
vt 1.550233 -0.5
vt 1.668039 0.5
vt 1.550233 0.5
vt -1.645319 -0.5
vt -1.776215 -0.5
vt -1.645319 0.5
vt -1.776215 0.5
vt 1.769672 -0.5
vt 1.651865 -0.5
vt 1.769672 0.5
vt 1.651865 0.5
vt -1.745784 -0.5
vt -1.87668 -0.5
vt -1.745784 0.5
vt -1.87668 0.5
vt 1.870136 -0.5
vt 1.752329 -0.5
vt 1.870136 0.5
vt 1.752329 0.5
vt -1.845007 -0.5
vt -1.975903 -0.5
vt -1.845007 0.5
vt -1.975903 0.5
vt 1.969357 -0.5
vt 1.851551 -0.5
vt 1.969357 0.5
vt 1.851551 0.5
vt -1.942918 -0.5
vt -2.073814 -0.5
vt -1.942918 0.5
vt -2.073814 0.5
vt 2.06727 -0.5
vt 1.949463 -0.5
vt 2.06727 0.5
vt 1.949463 0.5
vt -0.5 0.8125001
vt -0.5 1.3125
vt 0.5 0.8125001
vt 0.5 1.3125
vt -1.375 -2.165064
vt -1.373287 -2.034179
vt -0.8750002 -2.165064
vt -0.8734581 -2.047267
vt 1.373287 -2.034179
vt 1.375 -2.165064
vt 0.8734581 -2.047267
vt 0.8750002 -2.165064
vt -1.368148 -1.903384
vt -0.8688328 -1.929552
vt 1.368148 -1.903384
vt 0.8688328 -1.929552
vt -1.359587 -1.772768
vt -0.861128 -1.811998
vt 1.359587 -1.772768
vt 0.861128 -1.811998
vt -1.34761 -1.642421
vt -0.8503487 -1.694685
vt 1.34761 -1.642421
vt 0.8503487 -1.694685
vt -1.332225 -1.512432
vt -0.8365023 -1.577696
vt 1.332225 -1.512432
vt 0.8365023 -1.577696
vt -1.313442 -1.382891
vt -0.8195979 -1.461108
vt 1.313442 -1.382891
vt 0.8195979 -1.461108
vt -1.291275 -1.253886
vt -0.7996475 -1.345004
vt 1.291275 -1.253886
vt 0.7996475 -1.345004
vt -1.265738 -1.125505
vt -0.7766644 -1.229461
vt 1.265738 -1.125505
vt 0.7766644 -1.229461
vt -1.23685 -0.9978366
vt -0.7506649 -1.114559
vt 1.23685 -0.9978366
vt 0.7506649 -1.114559
vt -1.204629 -0.8709682
vt -0.7216665 -1.000378
vt 1.204629 -0.8709682
vt 0.7216665 -1.000378
vt -1.169099 -0.7449866
vt -0.6896889 -0.8869943
vt 1.169099 -0.7449866
vt 0.6896889 -0.8869943
vt -1.130283 -0.6199785
vt -0.6547548 -0.774487
vt 1.130283 -0.6199785
vt 0.6547548 -0.774487
vt -1.088207 -0.4960291
vt -0.6168868 -0.6629325
vt 1.088207 -0.4960291
vt 0.6168868 -0.6629325
vt -1.042902 -0.3732238
vt -0.576112 -0.5524077
vt 1.042902 -0.3732238
vt 0.576112 -0.5524077
vt -0.9943978 -0.2516461
vt -0.532458 -0.4429879
vt 0.9943978 -0.2516461
vt 0.532458 -0.4429879
vt -0.9427273 -0.1313802
vt -0.4859545 -0.3347486
vt 0.9427273 -0.1313802
vt 0.4859545 -0.3347486
vt -0.8879263 -0.012508
vt -0.4366338 -0.2277636
vt 0.8879263 -0.012508
vt 0.4366338 -0.2277636
vt -0.830033 0.1048891
vt -0.3845298 -0.1221062
vt 0.830033 0.1048891
vt 0.3845298 -0.1221062
vt -0.7690861 0.2207302
vt -0.3296773 -0.01784906
vt 0.7690861 0.2207302
vt 0.3296773 -0.01784906
vt -0.7051269 0.3349365
vt -0.2721145 0.08493652
vt 0.7051269 0.3349365
vt 0.2721145 0.08493652
vt -0.6382009 0.4474293
vt -0.2118809 0.18618
vt 0.6382009 0.4474293
vt 0.2118809 0.18618
vt -0.5683529 0.5581319
vt -0.1490178 0.2858123
vt 0.5683529 0.5581319
vt 0.1490178 0.2858123
vt -0.4956309 0.6669678
vt -0.08356805 0.3837647
vt 0.4956309 0.6669678
vt 0.08356805 0.3837647
vt -0.4200852 0.7738628
vt -0.0155768 0.4799701
vt 0.4200852 0.7738628
vt 0.0155768 0.4799701
vt -0.3417668 0.8787436
vt 0.05490998 0.5743629
vt 0.3417668 0.8787436
vt -0.05490998 0.5743629
vt -0.2607298 0.9815385
vt 0.1278432 0.6668782
vt 0.2607298 0.9815385
vt -0.1278432 0.6668782
vt -0.1770301 1.082177
vt 0.203173 0.7574527
vt 0.1770301 1.082177
vt -0.203173 0.7574527
vt -0.09072419 1.18059
vt 0.2808481 0.8460245
vt 0.09072419 1.18059
vt -0.2808481 0.8460245
vt -0.00187226 1.276709
vt 0.3608151 0.932532
vt 0.00187226 1.276709
vt -0.3608151 0.932532
vt 0.0894659 1.37047
vt 0.4430194 1.016917
vt -0.0894659 1.37047
vt -0.4430194 1.016917
vt 0.1832271 1.461808
vt 0.5274044 1.099121
vt -0.1832271 1.461808
vt -0.5274044 1.099121
vt 0.279347 1.550661
vt 0.6139124 1.179088
vt -0.279347 1.550661
vt -0.6139124 1.179088
vt 0.3777597 1.636966
vt 0.7024837 1.256763
vt -0.3777597 1.636966
vt -0.7024837 1.256763
vt 0.4783976 1.720666
vt 0.7930577 1.332093
vt -0.4783976 1.720666
vt -0.7930577 1.332093
vt 0.5811928 1.801703
vt 0.8855734 1.405026
vt -0.5811928 1.801703
vt -0.8855734 1.405026
vt 0.6860734 1.880021
vt 0.979966 1.475513
vt -0.6860734 1.880021
vt -0.979966 1.475513
vt 0.7929686 1.955567
vt 1.076172 1.543504
vt -0.7929686 1.955567
vt -1.076172 1.543504
vt 0.9018045 2.028289
vt 1.174124 1.608954
vt -0.9018045 2.028289
vt -1.174124 1.608954
vt 1.012507 2.098137
vt 1.273756 1.671817
vt -1.012507 2.098137
vt -1.273756 1.671817
vt 1.125 2.165064
vt 1.375 1.732051
vt -1.125 2.165064
vt -1.375 1.732051

vn -0.9999143 0.01308885 0
vn 0.9999143 -0.01309006 0
vn 0 -1 0
vn -0.999229 0.03926281 0
vn 0.999229 -0.039262 0
vn -0.9978591 0.06540048 0
vn 0.997859 -0.06540166 0
vn -0.9958049 0.09150161 0
vn 0.995805 -0.09150082 0
vn -0.9930685 0.1175372 0
vn 0.9930687 -0.1175353 0
vn -0.9896514 0.1434927 0
vn 0.9896514 -0.1434927 0
vn -0.985556 0.16935 0
vn 0.9855561 -0.1693493 0
vn -0.9807853 0.1950902 0
vn 0.980785 -0.1950917 0
vn -0.9753426 0.2206962 0
vn 0.9753423 -0.2206975 0
vn -0.9692303 0.2461558 0
vn 0.9692311 -0.2461528 0
vn -0.962456 0.2714377 0
vn 0.9624548 -0.2714421 0
vn -0.9550201 0.2965411 0
vn 0.955021 -0.2965384 0
vn -0.946929 0.3214428 0
vn 0.9469292 -0.3214423 0
vn -0.9381915 0.3461168 0
vn 0.9381911 -0.3461176 0
vn -0.9288099 0.3705565 0
vn 0.9288099 -0.3705567 0
vn -0.9187906 0.3947453 0
vn 0.9187905 -0.3947456 0
vn -0.9081427 0.4186608 0
vn 0.9081433 -0.4186594 0
vn -0.8968744 0.4422853 0
vn 0.8968744 -0.4422853 0
vn -0.8849878 0.4656143 0
vn 0.8849871 -0.4656156 0
vn -0.8724943 0.4886242 0
vn 0.8724955 -0.4886221 0
vn -0.859407 0.511292 0
vn 0.8594063 -0.5112934 0
vn -0.845728 0.5336143 0
vn 0.8457285 -0.5336135 0
vn -0.8314693 0.5555707 0
vn 0.8314694 -0.5555705 0
vn -0.8166419 0.5771446 0
vn 0.8166417 -0.5771449 0
vn -0.8012533 0.5983253 0
vn 0.8012525 -0.5983264 0
vn -0.7853166 0.6190944 0
vn 0.7853167 -0.6190943 0
vn -0.7688423 0.6394385 0
vn 0.7688429 -0.6394378 0
vn -0.7518399 0.6593458 0
vn 0.7518409 -0.6593446 0
vn -0.7343231 0.6788001 0
vn 0.7343214 -0.6788019 0
vn -0.7163018 0.6977906 0
vn 0.7163009 -0.6977916 0
vn -0.6977888 0.7163036 0
vn 0.6977901 -0.7163023 0
vn -0.6788031 0.7343203 0
vn 0.6788021 -0.7343213 0
vn -0.6593446 0.7518409 0
vn 0.6593454 -0.7518402 0
vn -0.6394392 0.7688417 0
vn 0.6394398 -0.7688412 0
vn -0.6190934 0.7853174 0
vn 0.6190923 -0.7853182 0
vn -0.5983262 0.8012527 0
vn 0.5983275 -0.8012516 0
vn -0.5771438 0.8166425 0
vn 0.5771442 -0.8166423 0
vn -0.5555702 0.8314697 0
vn 0.5555704 -0.8314695 0
vn -0.5336154 0.8457273 0
vn 0.5336145 -0.8457279 0
vn -0.5112932 0.8594064 0
vn 0.5112931 -0.8594064 0
vn 0.8660254 0.5000001 0
vn 0 0 1
vn 0 0 -1

usemtl ProBuilderDefault
f 3/3/1 4/4/1 2/2/1 1/1/1
f 7/7/2 8/8/2 6/6/2 5/5/2
f 1/11/3 6/12/3 8/10/3 3/9/3
f 4/15/4 10/16/4 9/14/4 2/13/4
f 12/19/5 7/20/5 5/18/5 11/17/5
f 10/23/6 14/24/6 13/22/6 9/21/6
f 16/27/7 12/28/7 11/26/7 15/25/7
f 14/31/8 18/32/8 17/30/8 13/29/8
f 20/35/9 16/36/9 15/34/9 19/33/9
f 18/39/10 22/40/10 21/38/10 17/37/10
f 24/43/11 20/44/11 19/42/11 23/41/11
f 22/47/12 26/48/12 25/46/12 21/45/12
f 28/51/13 24/52/13 23/50/13 27/49/13
f 26/55/14 30/56/14 29/54/14 25/53/14
f 32/59/15 28/60/15 27/58/15 31/57/15
f 30/63/16 34/64/16 33/62/16 29/61/16
f 36/67/17 32/68/17 31/66/17 35/65/17
f 34/71/18 38/72/18 37/70/18 33/69/18
f 40/75/19 36/76/19 35/74/19 39/73/19
f 38/79/20 42/80/20 41/78/20 37/77/20
f 44/83/21 40/84/21 39/82/21 43/81/21
f 42/87/22 46/88/22 45/86/22 41/85/22
f 48/91/23 44/92/23 43/90/23 47/89/23
f 46/95/24 50/96/24 49/94/24 45/93/24
f 52/99/25 48/100/25 47/98/25 51/97/25
f 50/103/26 54/104/26 53/102/26 49/101/26
f 56/107/27 52/108/27 51/106/27 55/105/27
f 54/111/28 58/112/28 57/110/28 53/109/28
f 60/115/29 56/116/29 55/114/29 59/113/29
f 58/119/30 62/120/30 61/118/30 57/117/30
f 64/123/31 60/124/31 59/122/31 63/121/31
f 62/127/32 66/128/32 65/126/32 61/125/32
f 68/131/33 64/132/33 63/130/33 67/129/33
f 66/135/34 70/136/34 69/134/34 65/133/34
f 72/139/35 68/140/35 67/138/35 71/137/35
f 70/143/36 74/144/36 73/142/36 69/141/36
f 76/147/37 72/148/37 71/146/37 75/145/37
f 74/151/38 78/152/38 77/150/38 73/149/38
f 80/155/39 76/156/39 75/154/39 79/153/39
f 78/159/40 82/160/40 81/158/40 77/157/40
f 84/163/41 80/164/41 79/162/41 83/161/41
f 82/167/42 86/168/42 85/166/42 81/165/42
f 88/171/43 84/172/43 83/170/43 87/169/43
f 86/175/44 90/176/44 89/174/44 85/173/44
f 92/179/45 88/180/45 87/178/45 91/177/45
f 90/183/46 94/184/46 93/182/46 89/181/46
f 96/187/47 92/188/47 91/186/47 95/185/47
f 94/191/48 98/192/48 97/190/48 93/189/48
f 100/195/49 96/196/49 95/194/49 99/193/49
f 98/199/50 102/200/50 101/198/50 97/197/50
f 104/203/51 100/204/51 99/202/51 103/201/51
f 102/207/52 106/208/52 105/206/52 101/205/52
f 108/211/53 104/212/53 103/210/53 107/209/53
f 106/215/54 110/216/54 109/214/54 105/213/54
f 112/219/55 108/220/55 107/218/55 111/217/55
f 110/223/56 114/224/56 113/222/56 109/221/56
f 116/227/57 112/228/57 111/226/57 115/225/57
f 114/231/58 118/232/58 117/230/58 113/229/58
f 120/235/59 116/236/59 115/234/59 119/233/59
f 118/239/60 122/240/60 121/238/60 117/237/60
f 124/243/61 120/244/61 119/242/61 123/241/61
f 122/247/62 126/248/62 125/246/62 121/245/62
f 128/251/63 124/252/63 123/250/63 127/249/63
f 126/255/64 130/256/64 129/254/64 125/253/64
f 132/259/65 128/260/65 127/258/65 131/257/65
f 130/263/66 134/264/66 133/262/66 129/261/66
f 136/267/67 132/268/67 131/266/67 135/265/67
f 134/271/68 138/272/68 137/270/68 133/269/68
f 140/275/69 136/276/69 135/274/69 139/273/69
f 138/279/70 142/280/70 141/278/70 137/277/70
f 144/283/71 140/284/71 139/282/71 143/281/71
f 142/287/72 146/288/72 145/286/72 141/285/72
f 148/291/73 144/292/73 143/290/73 147/289/73
f 146/295/74 150/296/74 149/294/74 145/293/74
f 152/299/75 148/300/75 147/298/75 151/297/75
f 150/303/76 154/304/76 153/302/76 149/301/76
f 156/307/77 152/308/77 151/306/77 155/305/77
f 154/311/78 158/312/78 157/310/78 153/309/78
f 160/315/79 156/316/79 155/314/79 159/313/79
f 158/319/80 162/320/80 161/318/80 157/317/80
f 164/323/81 160/324/81 159/322/81 163/321/81
f 163/327/82 161/328/82 162/326/82 164/325/82
f 8/331/83 7/332/83 4/330/83 3/329/83
f 5/335/84 6/336/84 1/334/84 2/333/84
f 7/332/83 12/338/83 10/337/83 4/330/83
f 11/340/84 5/335/84 2/333/84 9/339/84
f 12/338/83 16/342/83 14/341/83 10/337/83
f 15/344/84 11/340/84 9/339/84 13/343/84
f 16/342/83 20/346/83 18/345/83 14/341/83
f 19/348/84 15/344/84 13/343/84 17/347/84
f 20/346/83 24/350/83 22/349/83 18/345/83
f 23/352/84 19/348/84 17/347/84 21/351/84
f 24/350/83 28/354/83 26/353/83 22/349/83
f 27/356/84 23/352/84 21/351/84 25/355/84
f 28/354/83 32/358/83 30/357/83 26/353/83
f 31/360/84 27/356/84 25/355/84 29/359/84
f 32/358/83 36/362/83 34/361/83 30/357/83
f 35/364/84 31/360/84 29/359/84 33/363/84
f 36/362/83 40/366/83 38/365/83 34/361/83
f 39/368/84 35/364/84 33/363/84 37/367/84
f 40/366/83 44/370/83 42/369/83 38/365/83
f 43/372/84 39/368/84 37/367/84 41/371/84
f 44/370/83 48/374/83 46/373/83 42/369/83
f 47/376/84 43/372/84 41/371/84 45/375/84
f 48/374/83 52/378/83 50/377/83 46/373/83
f 51/380/84 47/376/84 45/375/84 49/379/84
f 52/378/83 56/382/83 54/381/83 50/377/83
f 55/384/84 51/380/84 49/379/84 53/383/84
f 56/382/83 60/386/83 58/385/83 54/381/83
f 59/388/84 55/384/84 53/383/84 57/387/84
f 60/386/83 64/390/83 62/389/83 58/385/83
f 63/392/84 59/388/84 57/387/84 61/391/84
f 64/390/83 68/394/83 66/393/83 62/389/83
f 67/396/84 63/392/84 61/391/84 65/395/84
f 68/394/83 72/398/83 70/397/83 66/393/83
f 71/400/84 67/396/84 65/395/84 69/399/84
f 72/398/83 76/402/83 74/401/83 70/397/83
f 75/404/84 71/400/84 69/399/84 73/403/84
f 76/402/83 80/406/83 78/405/83 74/401/83
f 79/408/84 75/404/84 73/403/84 77/407/84
f 80/406/83 84/410/83 82/409/83 78/405/83
f 83/412/84 79/408/84 77/407/84 81/411/84
f 84/410/83 88/414/83 86/413/83 82/409/83
f 87/416/84 83/412/84 81/411/84 85/415/84
f 88/414/83 92/418/83 90/417/83 86/413/83
f 91/420/84 87/416/84 85/415/84 89/419/84
f 92/418/83 96/422/83 94/421/83 90/417/83
f 95/424/84 91/420/84 89/419/84 93/423/84
f 96/422/83 100/426/83 98/425/83 94/421/83
f 99/428/84 95/424/84 93/423/84 97/427/84
f 100/426/83 104/430/83 102/429/83 98/425/83
f 103/432/84 99/428/84 97/427/84 101/431/84
f 104/430/83 108/434/83 106/433/83 102/429/83
f 107/436/84 103/432/84 101/431/84 105/435/84
f 108/434/83 112/438/83 110/437/83 106/433/83
f 111/440/84 107/436/84 105/435/84 109/439/84
f 112/438/83 116/442/83 114/441/83 110/437/83
f 115/444/84 111/440/84 109/439/84 113/443/84
f 116/442/83 120/446/83 118/445/83 114/441/83
f 119/448/84 115/444/84 113/443/84 117/447/84
f 120/446/83 124/450/83 122/449/83 118/445/83
f 123/452/84 119/448/84 117/447/84 121/451/84
f 124/450/83 128/454/83 126/453/83 122/449/83
f 127/456/84 123/452/84 121/451/84 125/455/84
f 128/454/83 132/458/83 130/457/83 126/453/83
f 131/460/84 127/456/84 125/455/84 129/459/84
f 132/458/83 136/462/83 134/461/83 130/457/83
f 135/464/84 131/460/84 129/459/84 133/463/84
f 136/462/83 140/466/83 138/465/83 134/461/83
f 139/468/84 135/464/84 133/463/84 137/467/84
f 140/466/83 144/470/83 142/469/83 138/465/83
f 143/472/84 139/468/84 137/467/84 141/471/84
f 144/470/83 148/474/83 146/473/83 142/469/83
f 147/476/84 143/472/84 141/471/84 145/475/84
f 148/474/83 152/478/83 150/477/83 146/473/83
f 151/480/84 147/476/84 145/475/84 149/479/84
f 152/478/83 156/482/83 154/481/83 150/477/83
f 155/484/84 151/480/84 149/479/84 153/483/84
f 156/482/83 160/486/83 158/485/83 154/481/83
f 159/488/84 155/484/84 153/483/84 157/487/84
f 160/486/83 164/490/83 162/489/83 158/485/83
f 163/492/84 159/488/84 157/487/84 161/491/84

